<?xml version="1.0" encoding="UTF-8"?><svg id="Layer_1" xmlns="http://www.w3.org/2000/svg" width="321.33" height="334" viewBox="0 0 321.33 334"><defs><style>.cls-1{fill:#ffeaf2;}.cls-2{fill:#ebefff;}.cls-3{fill:#f4ffff;}.cls-4{fill:#fff4fc;}.cls-5{fill:#fffff4;}.cls-6{fill:#fff0f0;}.cls-7{fill:#f3fff2;}</style></defs><g><polygon class="cls-6" points="128.62 222.5 96.58 167 128.62 111.5 192.71 111.5 224.75 167 192.71 222.5 128.62 222.5"/><path d="m192.42,112l31.75,55-31.75,55h-63.51l-31.75-55,31.75-55h63.51m.58-1h-64.66l-32.33,56,32.33,56h64.66l32.33-56-32.33-56h0Z"/></g><g><polygon class="cls-4" points="128.62 111.5 96.58 56 128.62 .5 192.71 .5 224.75 56 192.71 111.5 128.62 111.5"/><path d="m192.42,1l31.75,55-31.75,55h-63.51l-31.75-55L128.91,1h63.51m.58-1h-64.66l-32.33,56,32.33,56h64.66l32.33-56L192.99,0h0Z"/></g><g><polygon class="cls-5" points="224.62 166.5 192.58 111 224.62 55.5 288.71 55.5 320.75 111 288.71 166.5 224.62 166.5"/><path d="m288.42,56l31.75,55-31.75,55h-63.51l-31.75-55,31.75-55h63.51m.58-1h-64.66l-32.33,56,32.33,56h64.66l32.33-56-32.33-56h0Z"/></g><g><polygon class="cls-3" points="32.62 166.5 .58 111 32.62 55.5 96.71 55.5 128.75 111 96.71 166.5 32.62 166.5"/><path d="m96.42,56l31.75,55-31.75,55h-63.51L1.15,111l31.75-55h63.51m.58-1H32.33L0,111l32.33,56h64.66l32.33-56-32.33-56h0Z"/></g><g><polygon class="cls-1" points="32.62 277.5 .58 222 32.62 166.5 96.71 166.5 128.75 222 96.71 277.5 32.62 277.5"/><path d="m96.42,167l31.75,55-31.75,55h-63.51L1.15,222l31.75-55h63.51m.58-1H32.33L0,222l32.33,56h64.66l32.33-56-32.33-56h0Z"/></g><g><polygon class="cls-2" points="128.62 333.5 96.58 278 128.62 222.5 192.71 222.5 224.75 278 192.71 333.5 128.62 333.5"/><path d="m192.42,223l31.75,55-31.75,55h-63.51l-31.75-55,31.75-55h63.51m.58-1h-64.66l-32.33,56,32.33,56h64.66l32.33-56-32.33-56h0Z"/></g><g><polygon class="cls-7" points="224.62 277.5 192.58 222 224.62 166.5 288.71 166.5 320.75 222 288.71 277.5 224.62 277.5"/><path d="m288.42,167l31.75,55-31.75,55h-63.51l-31.75-55,31.75-55h63.51m.58-1h-64.66l-32.33,56,32.33,56h64.66l32.33-56-32.33-56h0Z"/></g></svg>